# xmcd
# 
# Track frame offsets:
#     150
#     17293
#     35178
#     52929
#     66702
#     88480
#     105471
#     122251
#     136785
#     155200
#     170690
#     183940
#     200895
#     220165
#     235526
# 
# Disc length: 3415
# 
# Revision: 5
# Processed by: cddbd v1.5.2PL0 Copyright (c) Steve Scherf et al.
# Submitted via: BonkEnc v1.0
# 
DISCID=d40d550f
DTITLE=Garotos de ouro - irmãos e amigos cd1
DYEAR=0
DGENRE=Country
TTITLE0=Quebradeira
TTITLE1=Me bate Nega Veia
TTITLE2=O Socadão
TTITLE3=Rei do Batidão
TTITLE4=Pra Viver esse Amor
TTITLE5=Filha do Gaiteiro
TTITLE6=Irmãos e Amigos
TTITLE7=Esqueci
TTITLE8=Bica Meu Galo
TTITLE9=Ôh Saudade!
TTITLE10=Bem na moda da Fronteira
TTITLE11=S.O.S. Coração
TTITLE12=Bailezito
TTITLE13=Paixão Campeira
TTITLE14=Obrigado Patrão Velho
EXTD=
EXTT0=
EXTT1=
EXTT2=
EXTT3=
EXTT4=
EXTT5=
EXTT6=
EXTT7=
EXTT8=
EXTT9=
EXTT10=
EXTT11=
EXTT12=
EXTT13=
EXTT14=
PLAYORDER=
